<svg id="Layer_1" xmlns="http://www.w3.org/2000/svg" viewBox="0 0 45 45"><style>.st0{fill:#29A1AA;} .st1{fill:#FFFFFF;}</style><circle class="st0" cx="22.5" cy="22.5" r="22.5"/><path class="st1" d="M21.7 26.3c-.9 0-1.6-.7-1.7-1.5l-.3-2.1c-.2-1 .4-1.8 1.4-1.9 2.7-.3 4-1.2 4-2.7V18c0-1.4-1.1-2.2-2.9-2.2-1.4 0-2.5.4-3.7 1.3-.4.3-.9.5-1.4.5-1.2 0-2.2-1-2.2-2.2 0-.6.3-1.2.8-1.7 1.7-1.4 3.8-2.3 6.5-2.3 4.5 0 7.6 2.3 7.6 6.5v.1c0 4-2.8 5.6-6.2 6.3l-.1.6c-.1.8-.8 1.5-1.7 1.5h-.1zm0 2c1.6 0 2.7 1.2 2.7 2.7v.1c0 1.5-1.2 2.7-2.7 2.7-1.6 0-2.7-1.2-2.7-2.7V31c0-1.5 1.2-2.7 2.7-2.7z"/></svg>