<svg id="Layer_1" xmlns="http://www.w3.org/2000/svg" viewBox="0 0 40 24"><style>.st0{fill:#BDEFEB;} .st1{fill:#FBFEFF;} .st2{fill:#29A1AA;} .st3{fill:#50BCB5;}</style><path class="st0" d="M23.7 3.7c-2.1-1.4-7.4 2.7-8.7 3.8-1.4-.9-3.1-1.4-4.9-1.4-.6 0-1.2.1-1.8.2C7.6 5.1 3.3-1 1.2.1c-2.3 1.3-.4 8-.4 8s-.1 2 1 3.8c-.4 1-.6 2.1-.6 3.2.1 4.9 4.1 8.9 9.1 8.8 4.8-.1 8.7-3.9 8.9-8.6 1.6-1.3 2.3-3.9 2.3-3.9s4.6-6.1 2.2-7.7z"/><path class="st1" d="M11.8 13.2l.2-4.5c.1-.4-.1-.7-.5-.7-.3-.1-.7.1-.7.5l-1.3 4.4c-2.7.2-4.7 2.5-4.6 5.1.1 2.7 2.4 4.9 5.2 4.8 2.8-.1 4.9-2.4 4.8-5.1-.1-2.1-1.3-3.8-3.1-4.5z"/><path class="st2" d="M10.1 15.7c-1-.1-2 .3-2.2 1.3-.1 1 .7 2 1.8 2.1s2.1-.6 2.2-1.6c.2-1.1-.7-1.7-1.8-1.8z"/><ellipse transform="rotate(-83.362 15.855 10.13)" class="st3" cx="15.9" cy="10.1" rx=".6" ry="1.4"/><ellipse transform="rotate(-83.362 6.527 9)" class="st3" cx="6.5" cy="9" rx=".6" ry="1.4"/><path class="st2" d="M7 10.8c-.3 0-.6.2-.7.4-.1-.2-.3-.6-.6-.6-.4-.1-.8.3-.9.7-.1.7.9 1.7 1.3 1.7.5.1 1.5-.7 1.6-1.4 0-.4-.3-.8-.7-.8zm9.2 1.2c-.3 0-.6.2-.7.4-.1-.2-.3-.6-.6-.6-.4-.1-.8.3-.9.7-.1.7.9 1.7 1.3 1.7.5.1 1.5-.7 1.6-1.4.1-.3-.2-.7-.7-.8z"/><path class="st3" d="M11.4 20.5c-.8 0-1.5-.3-1.9-.9-.4.2-.8.3-1.3.3-.7 0-1.4-.3-1.9-.8.1.3 1.1 2.2 3 2.5 2 .2 3.7-1.7 3.7-1.7-.4.4-1 .6-1.6.6zM39.1 5.3c-2-.8-5.6 3.5-6.4 4.5-1.3-.5-2.7-.6-4.2-.3-.5.1-.9.2-1.3.4-.9-.9-5.3-5-6.8-3.8-1.7 1.4 1 6.5 1 6.5s.3 1.6 1.4 2.8c-.2.9-.2 1.8 0 2.8.8 4 4.8 6.5 8.8 5.6 3.9-.8 6.4-4.5 5.8-8.3 1.2-1.3 1.3-3.6 1.3-3.6s2.6-5.7.4-6.6z"/><path class="st1" d="M30.9 14.9l-.6-3.7c0-.3-.2-.5-.5-.5s-.5.2-.5.5L29 15c-2.1.6-3.4 2.7-2.9 4.9s2.7 3.5 5 3c2.2-.5 3.6-2.7 3.1-4.9-.4-1.7-1.7-2.8-3.3-3.1z"/><path class="st2" d="M30 17.2c-.8.1-1.6.5-1.5 1.4.1.8.9 1.5 1.8 1.4.8-.1 1.6-.8 1.5-1.6-.1-1-.9-1.3-1.8-1.2zm3.8-2.4c-.4 0-.8-.3-.9-.7 0 .1-.1.2-.1.3 0 .5.4.9.9.8.5 0 .9-.4.8-.9v-.1c0 .3-.3.5-.7.6zm-6.8-.6c0 .5-.4.9-.8.9-.3 0-.6-.2-.8-.4 0 .5.4.9.9.8.5 0 .9-.4.8-.9 0-.1 0-.3-.1-.4z"/><ellipse transform="rotate(-83.84 33.782 12.46)" class="st2" cx="33.8" cy="12.5" rx=".5" ry="1.2"/><ellipse transform="rotate(-14.366 25.923 12.868)" class="st2" cx="25.9" cy="12.9" rx="1.2" ry=".5"/><path class="st2" d="M30.2 21.1c.4 0 .8.2.9.6v-.3c-.1-.5-.5-.8-1-.8-.5.1-.8.5-.8 1v.1c.2-.3.5-.6.9-.6z"/></svg>